<svg width="512" height="512" viewBox="0 0 512 512" fill="none" xmlns="http://www.w3.org/2000/svg">
<path d="M362.668 405.668H149.332C66.9883 405.668 0 338.66 0 256.332C0 174.008 66.9883 107 149.332 107H362.668C445.012 107 512 174.008 512 256.332C512 338.66 445.012 405.668 362.668 405.668V405.668ZM149.332 139C84.6289 139 32 191.652 32 256.332C32 321.016 84.6289 373.668 149.332 373.668H362.668C427.371 373.668 480 321.016 480 256.332C480 191.652 427.371 139 362.668 139H149.332Z" fill="white"/>
<path d="M149.332 341.668C102.273 341.668 64 303.395 64 256.332C64 209.273 102.273 171 149.332 171C196.395 171 234.668 209.273 234.668 256.332C234.668 303.395 196.395 341.668 149.332 341.668ZM149.332 203C119.938 203 96 226.914 96 256.332C96 285.754 119.938 309.668 149.332 309.668C178.73 309.668 202.668 285.754 202.668 256.332C202.668 226.914 178.73 203 149.332 203Z" fill="white"/>
</svg>
