<svg width="144" height="144" viewBox="0 0 144 144" fill="none" xmlns="http://www.w3.org/2000/svg">
<g clip-path="url(#clip0)">
<path d="M121.5 66C119.898 66 118.326 66.174 116.808 66.492C114.786 46.038 97.476 30 76.5 30C74.016 30 72 32.016 72 34.5V106.5C72 108.984 74.016 111 76.5 111H121.5C133.914 111 144 100.914 144 88.5C144 76.098 133.914 66 121.5 66Z" fill="white"/>
<path d="M54 43.5V106.5C54 108.984 56.016 111 58.5 111C60.984 111 63 108.984 63 106.5V43.5C63 41.016 60.984 39 58.5 39C56.016 39 54 41.016 54 43.5Z" fill="white"/>
<path d="M36 61.5V106.5C36 108.984 38.016 111 40.5 111C42.984 111 45 108.984 45 106.5V61.5C45 59.016 42.984 57 40.5 57C38.016 57 36 59.016 36 61.5Z" fill="white"/>
<path d="M18 106.5C18 108.984 20.016 111 22.5 111C24.984 111 27 108.984 27 106.5V61.5C27 59.016 24.984 57 22.5 57C20.016 57 18 59.016 18 61.5V106.5Z" fill="white"/>
<path d="M4.5 111C6.984 111 9 108.984 9 106.5V79.5C9 77.016 6.984 75 4.5 75C2.016 75 0 77.016 0 79.5V106.5C0 108.984 2.016 111 4.5 111Z" fill="white"/>
</g>
<defs>
<clipPath id="clip0">
<rect width="144" height="144" fill="white"/>
</clipPath>
</defs>
</svg>
