<svg width="92" height="92" viewBox="0 0 92 92" fill="none" xmlns="http://www.w3.org/2000/svg">
<path fill-rule="evenodd" clip-rule="evenodd" d="M73.2102 40.7798C58.3824 31.974 33.9246 31.1644 19.7696 35.4604C17.4962 36.1503 15.0925 34.867 14.4042 32.5941C13.7154 30.3196 14.9969 27.9174 17.2715 27.2264C33.5208 22.2943 60.532 23.2469 77.6018 33.3797C79.6469 34.5935 80.317 37.2341 79.1052 39.2752C77.8924 41.3197 75.2497 41.9938 73.2102 40.7798ZM72.7247 53.8223C71.6843 55.5103 69.4772 56.0397 67.7913 55.0032C55.43 47.4049 36.5792 45.2032 21.9543 49.6426C20.0581 50.2155 18.0548 49.1466 17.4786 47.2533C16.9073 45.357 17.9768 43.3577 19.8703 42.7808C36.5771 37.7108 57.3465 40.1662 71.5448 48.8919C73.2305 49.9299 73.7612 52.1381 72.7247 53.8223ZM67.096 66.3479C66.2693 67.7036 64.5045 68.1281 63.1538 67.302C52.3518 60.7001 38.7556 59.2093 22.7436 62.8665C21.2006 63.2201 19.6627 62.2533 19.311 60.711C18.9573 59.1681 19.9209 57.6299 21.467 57.2779C38.9896 53.2724 54.0201 54.9961 66.1445 62.4049C67.4964 63.2306 67.9221 64.9967 67.096 66.3479ZM45.9998 0C20.5954 0 0 20.5948 0 45.9992C0 71.4064 20.5954 92 45.9998 92C71.4052 92 92 71.4064 92 45.9992C92 20.5948 71.4052 0 45.9998 0Z" fill="white"/>
</svg>
